<?xml version="1.0" standalone="no"?>
<!DOCTYPE svg PUBLIC "-//W3C//DTD SVG 20010904//EN"
 "http://www.w3.org/TR/2001/REC-SVG-20010904/DTD/svg10.dtd">
<svg version="1.0" xmlns="http://www.w3.org/2000/svg"
 width="1280.000000pt" height="1280.000000pt" viewBox="0 0 1280.000000 1280.000000"
 preserveAspectRatio="xMidYMid meet">
<g transform="translate(0.000000,1280.000000) scale(0.100000,-0.100000)"
fill="#000000" stroke="none">
<path d="M6140 12790 c-41 -5 -149 -13 -240 -20 -2028 -145 -3911 -1311 -4979
-3083 -578 -959 -875 -1999 -918 -3207 -6 -159 -2 -239 33 -650 174 -2057
1385 -3942 3199 -4980 814 -465 1749 -753 2665 -820 85 -6 199 -15 253 -21
126 -12 364 -12 497 1 58 5 170 14 250 20 1810 133 3509 1070 4615 2545 727
970 1166 2132 1255 3325 6 80 15 192 20 250 13 134 13 366 0 500 -5 58 -14
170 -20 250 -127 1712 -967 3324 -2310 4431 -1014 836 -2282 1349 -3560 1439
-85 6 -199 15 -253 21 -113 10 -397 10 -507 -1z m745 -975 c688 -63 1312 -238
1914 -535 259 -128 373 -194 616 -356 503 -334 912 -715 1291 -1200 106 -135
329 -470 416 -624 328 -578 548 -1206 648 -1852 102 -657 85 -1332 -51 -1973
-273 -1293 -1000 -2434 -2054 -3224 -758 -569 -1641 -926 -2585 -1045 -426
-54 -934 -54 -1360 0 -944 119 -1827 476 -2585 1045 -1132 849 -1888 2107
-2105 3502 -157 1005 -35 2015 356 2953 130 314 286 603 490 909 217 327 402
553 679 830 276 276 503 461 830 679 342 228 623 377 995 526 567 227 1130
347 1800 384 126 7 547 -4 705 -19z"/>
<path d="M9193 9036 c-23 -7 -62 -25 -85 -39 -24 -14 -801 -784 -1728 -1711
-927 -927 -1692 -1686 -1700 -1686 -8 0 -456 441 -995 980 -1102 1102 -1024
1033 -1177 1034 -133 0 -159 -19 -464 -326 -241 -243 -263 -268 -284 -323 -29
-81 -26 -197 9 -270 19 -41 295 -322 1465 -1492 792 -794 1443 -1443 1446
-1443 3 0 977 972 2165 2160 1575 1575 2166 2172 2185 2207 22 42 25 60 25
148 0 150 -6 159 -309 462 -214 214 -260 256 -310 279 -72 33 -178 41 -243 20z"/>
</g>
</svg>
