<?xml version="1.0" standalone="no"?>
<!DOCTYPE svg PUBLIC "-//W3C//DTD SVG 20010904//EN"
 "http://www.w3.org/TR/2001/REC-SVG-20010904/DTD/svg10.dtd">
<svg version="1.0" xmlns="http://www.w3.org/2000/svg"
 width="219.000000pt" height="230.000000pt" viewBox="0 0 219.000000 230.000000"
 preserveAspectRatio="xMidYMid meet">

<g transform="translate(0.000000,230.000000) scale(0.100000,-0.100000)"
fill="#000000" stroke="none">
<path d="M758 2290 c-114 -20 -148 -73 -148 -228 l0 -102 -305 0 -305 0 0 -80
0 -80 1095 0 1095 0 0 80 0 80 -300 0 -300 0 0 102 c0 131 -19 176 -88 210
-46 22 -54 23 -372 25 -179 1 -346 -2 -372 -7z m641 -155 c33 -17 41 -39 41
-117 l0 -58 -340 0 -340 0 0 72 c0 60 4 76 22 95 21 23 22 23 305 23 229 0
289 -3 312 -15z"/>
<path d="M290 963 c0 -465 4 -741 10 -765 18 -63 70 -129 130 -162 l55 -31
589 -3 c514 -2 595 -1 643 13 66 19 132 77 165 143 l23 47 3 743 3 742 -81 0
-80 0 -2 -741 -3 -741 -28 -24 -29 -24 -588 2 -588 3 -26 24 -26 24 -2 736 -3
736 -82 3 -83 3 0 -728z"/>
<path d="M682 873 l3 -508 73 -3 72 -3 0 511 0 510 -75 0 -75 0 2 -507z"/>
<path d="M1030 875 l0 -505 75 0 75 0 0 505 0 505 -75 0 -75 0 0 -505z"/>
<path d="M1360 875 l0 -505 75 0 75 0 0 505 0 505 -75 0 -75 0 0 -505z"/>
</g>
</svg>
